<svg height="512pt" viewBox="-37 0 512 512.00007" width="512pt" xmlns="http://www.w3.org/2000/svg"><path d="m223.613281 494.730469v-126.628907c.019531-6.769531 5.5-12.25 12.269531-12.273437h84.96875l-1.046874-18.789063h-19.039063c-5.519531-.21875-9.8125-4.875-9.589844-10.390624.207031-5.207032 4.382813-9.382813 9.589844-9.59375h13.160156c-3.828125-5.089844-9.285156-8.714844-15.460937-10.273438l-48.109375-12.109375-6.875-1.730469-33.078125-16.308594-15.199219 31.351563c-1.128906 2.332031-3.492187 3.8125-6.082031 3.8125h-22.671875c-2.589844 0-4.953125-1.480469-6.082031-3.8125l-15.199219-31.351563-33.078125 16.308594-6.875 1.730469-48.105469 12.113281c-11.855469 2.988282-20.394531 13.332032-21.078125 25.539063l-8.640625 155.121093c-.570313 10.210938 7.25 18.957032 17.464844 19.527344.34375.019532.6875.027344 1.03125.027344h190c-6.769531-.015625-12.253907-5.5-12.273438-12.269531zm0 0" fill="#60bae2"/><path d="m243.480469 292.945312-16.355469 40.292969c-1.261719 3.121094-4.816406 4.625-7.933594 3.359375-.964844-.390625-1.8125-1.023437-2.464844-1.832031l-21.523437-26.777344 15.199219-31.351562zm0 0" fill="#e9e9ea"/><path d="m128.449219 333.238281c1.261719 3.121094 4.816406 4.625 7.933593 3.359375.964844-.390625 1.8125-1.023437 2.464844-1.832031l20.898438-26c-.199219-.300781-.375-.617187-.527344-.945313l-14.050781-31.183593-22.058594 10.871093-11.027344 5.4375zm0 0" fill="#e9e9ea"/><path d="m252.109375 133.175781c-1.582031 0-3.164063.128907-4.726563.378907.105469 1.582031.179688 3.171874.179688 4.777343v48.800781c0 1.601563-.070312 3.179688-.175781 4.75 16.105469 2.621094 31.289062-8.308593 33.910156-24.414062s-8.308594-31.289062-24.414063-33.910156c-1.578124-.257813-3.175781-.386719-4.773437-.382813zm0 0" fill="#f9d0b4"/><path d="m105.957031 187.132812v-48.800781c0-1.597656.074219-3.199219.179688-4.777343-16.105469-2.71875-31.367188 8.132812-34.089844 24.238281-2.71875 16.105469 8.132813 31.367187 24.238281 34.089843 3.261719.550782 6.589844.550782 9.851563 0-.109375-1.570312-.179688-3.152343-.179688-4.75zm0 0" fill="#f9d0b4"/><path d="m187.359375 101.234375c-25.859375 32.523437-64 27.933594-76.832031 25.246094-2.042969-.4375-4.050782.863281-4.488282 2.902343-.050781.246094-.078124.496094-.082031.75v57c.109375 39.054688 31.742188 70.6875 70.800781 70.800782 39.054688-.113282 70.6875-31.746094 70.796876-70.800782v-63.070312c0-.367188-.003907-.738281-.011719-1.105469-.039063-2.015625-1.644531-3.648437-3.65625-3.722656-29.414063-.863281-44.910157-12.519531-50.863281-18.355469-1.503907-1.476562-3.917969-1.453125-5.390626.050782-.097656.097656-.1875.199218-.273437.304687zm0 0" fill="#f9d0b4"/><path d="m176.757812 257.9375c-10.972656.003906-21.789062-2.566406-31.585937-7.503906v26.199218l14.046875 31.179688c1.089844 2.425781 3.503906 3.984375 6.164062 3.984375h23.742188c2.589844 0 4.953125-1.480469 6.085938-3.8125l15.199218-31.351563v-27.261718c-10.320312 5.628906-21.894531 8.574218-33.652344 8.566406zm0 0" fill="#f9d0b4"/><path d="m101.410156 133.175781c1.523438.003907 3.042969.121094 4.546875.359375v-3.402344c.023438-2.085937 1.734375-3.757812 3.820313-3.734374.253906.003906.503906.03125.75.085937 12.824218 2.683594 50.972656 7.273437 76.832031-25.25 1.304687-1.652344 3.703125-1.933594 5.355469-.628906.105468.085937.214844.175781.3125.273437 5.953125 5.839844 21.449218 17.496094 50.863281 18.355469 2.011719.078125 3.617187 1.710937 3.65625 3.722656.007813.367188.011719.738281.011719 1.109375v9.46875c9.132812-1.441406 18.410156 1.496094 25.046875 7.933594v-53.167969c-.0625-22.3125-18.132813-40.382812-40.445313-40.445312-7.28125.007812-14.425781 2.003906-20.65625 5.765625-7.277344-12.238282-20.449218-19.757813-34.6875-19.800782h-20.765625c-40.316406.121094-72.96875 32.773438-73.082031 73.089844v32.746094c5.230469-4.199219 11.734375-6.488281 18.441406-6.480469zm0 0" fill="#6d6c6b"/><path d="m421.707031 355.832031h-185.820312c-6.765625.019531-12.25 5.5-12.269531 12.269531v126.628907c.019531 6.769531 5.503906 12.25 12.269531 12.269531h184.664062c6.765625-.019531 12.25-5.5 12.269531-12.269531v-127.789063c-.019531-6.128906-4.980468-11.09375-11.113281-11.109375zm0 0" fill="#b26e3b"/><path d="m355.660156 337.042969h-54.894531c-5.519531-.222657-9.8125-4.875-9.589844-10.394531.207031-5.207032 4.382813-9.382813 9.589844-9.589844h54.894531c5.519532.21875 9.8125 4.875 9.59375 10.390625-.210937 5.207031-4.386718 9.382812-9.59375 9.59375zm0 0" fill="#b26e3b"/><path d="m348.167969 440.855469h-39.90625c-5.519531-.222657-9.8125-4.875-9.59375-10.394531.207031-5.207032 4.382812-9.382813 9.59375-9.589844h39.90625c5.515625.21875 9.808593 4.871094 9.589843 10.390625-.207031 5.207031-4.382812 9.382812-9.589843 9.59375zm0 0" fill="#e9e9ea"/><path d="m318.21875 440.855469v7.460937c-.21875 5.519532 4.074219 10.171875 9.59375 10.394532 5.515625.21875 10.171875-4.074219 10.390625-9.59375.011719-.265626.011719-.535157 0-.800782v-7.460937zm0 0" fill="#e9e9ea"/><path d="m421.707031 355.832031h-185.820312c-6.765625.019531-12.25 5.5-12.269531 12.269531v51.046876c.019531 6.765624 5.503906 12.25 12.269531 12.269531h62.414062c-.007812-.183594-.027343-.367188-.027343-.550781 0-5.523438 4.480468-10 10-10h39.90625c5.523437 0 10 4.476562 10 10 0 .183593-.019532.367187-.027344.550781h62.414062c6.769532-.019531 12.25-5.503907 12.269532-12.269531v-52.199219c-.015626-6.140625-4.988282-11.109375-11.128907-11.117188zm0 0" fill="#c1814c"/><path d="m290.773438 355.832031v6.945313c0 7.203125 5.839843 13.039062 13.039062 13.039062h48.800781c7.203125 0 13.039063-5.835937 13.039063-13.039062v-6.945313zm0 0" fill="#b26e3b"/><path d="m423.722656 209.785156h-4.511718c-1.382813 0-2.601563-.894531-3.019532-2.210937-.976562-3.054688-2.203125-6.023438-3.675781-8.871094-.636719-1.226563-.40625-2.726563.570313-3.703125l3.199218-3.199219c3.550782-3.550781 3.550782-9.308593 0-12.859375l-8.609375-8.613281c-3.550781-3.546875-9.308593-3.546875-12.859375 0l-3.199218 3.203125c-.976563.976562-2.476563 1.207031-3.699219.570312-2.851563-1.472656-5.816407-2.703124-8.875-3.675781-1.316407-.417969-2.207031-1.640625-2.207031-3.023437v-4.507813c0-5.019531-4.070313-9.089843-9.09375-9.089843h-12.179688c-5.023438 0-9.09375 4.070312-9.09375 9.089843v4.503907c0 1.382812-.894531 2.605468-2.207031 3.023437-3.058594.972656-6.027344 2.203125-8.875 3.675781-1.226563.636719-2.722657.40625-3.699219-.570312l-3.203125-3.203125c-3.546875-3.546875-9.304687-3.546875-12.855469 0l-8.613281 8.613281c-3.550781 3.550781-3.550781 9.308594 0 12.859375l3.199219 3.199219c.980468.976562 1.210937 2.476562.574218 3.703125-1.476562 2.847656-2.703124 5.816406-3.675781 8.871093-.417969 1.316407-1.640625 2.210938-3.023437 2.210938h-4.511719c-5.019531 0-9.089844 4.070312-9.089844 9.089844v12.179687c0 5.023438 4.070313 9.09375 9.089844 9.09375h4.511719c1.382812 0 2.605468.894531 3.023437 2.210938.972657 3.054687 2.199219 6.023437 3.675781 8.871093.636719 1.226563.402344 2.726563-.574218 3.703126l-3.199219 3.199218c-3.550781 3.550782-3.550781 9.308594 0 12.859375l8.613281 8.613281c3.550782 3.546876 9.308594 3.546876 12.855469 0l3.191406-3.191406c.976563-.976562 2.476563-1.207031 3.703125-.574218 2.847656 1.476562 5.816406 2.703124 8.871094 3.679687 1.316406.417969 2.210938 1.636719 2.210938 3.019531v4.507813c0 5.023437 4.070312 9.09375 9.089843 9.09375h12.179688c5.023437 0 9.09375-4.070313 9.09375-9.09375v-4.507813c0-1.382812.894531-2.601562 2.210937-3.019531 3.054688-.976563 6.023438-2.203125 8.871094-3.679687 1.226562-.632813 2.722656-.402344 3.703125.574218l3.199219 3.191406c3.550781 3.546876 9.304687 3.550782 12.855468 0h.003907l8.609375-8.613281c3.550781-3.550781 3.550781-9.304687 0-12.855469l-3.199219-3.199218c-.976563-.980469-1.207031-2.476563-.570313-3.703125 1.472657-2.847657 2.699219-5.816407 3.675782-8.871094.417968-1.320313 1.636718-2.214844 3.019531-2.214844h4.511719c5.019531 0 9.089844-4.070312 9.089844-9.089843v-12.179688c0-5.019531-4.066407-9.085938-9.082032-9.089844zm-62.070312 48.652344c-18.484375 0-33.472656-14.984375-33.472656-33.472656 0-18.484375 14.988281-33.472656 33.472656-33.472656s33.472656 14.988281 33.472656 33.472656c0 18.488281-14.988281 33.472656-33.472656 33.472656zm0 0" fill="#fcd770"/><path d="m22.363281 274.882812h-17.363281c-2.761719 0-5-2.238281-5-5 0-2.761718 2.238281-5 5-5h17.363281c2.761719 0 5 2.238282 5 5 0 2.761719-2.238281 5-5 5zm0 0" fill="#f75c64"/><path d="m13.683594 283.5625c-2.761719 0-5-2.238281-5-5v-17.363281c0-2.761719 2.238281-5 5-5 2.761718 0 5 2.238281 5 5v17.363281c0 2.761719-2.238282 5-5 5zm0 0" fill="#f75c64"/><path d="m43.21875 222.769531c-1.324219 0-2.597656-.527343-3.535156-1.457031-.234375-.234375-.441406-.488281-.621094-.761719-.179688-.273437-.335938-.566406-.460938-.867187-.125-.300782-.21875-.613282-.28125-.933594-.066406-.320312-.101562-.648438-.097656-.976562-.003906-.332032.03125-.660157.097656-.980469.0625-.320313.15625-.628907.28125-.929688.125-.304687.28125-.59375.460938-.871093.179688-.273438.386719-.527344.621094-.757813 1.433594-1.417969 3.578125-1.839844 5.445312-1.078125.300782.128906.585938.28125.859375.460938.273438.175781.53125.382812.757813.617187.230468.234375.441406.488281.621094.761719.179687.273437.335937.566406.460937.871094.125.296874.222656.609374.289063.925781.066406.324219.097656.652343.101562.980469-.003906.332031-.035156.660156-.101562.980468-.066407.316406-.164063.628906-.289063.929688-.125.304687-.28125.597656-.460937.871094-.179688.269531-.390626.527343-.621094.757812-.226563.234375-.484375.445312-.757813.621094-.273437.179687-.558593.332031-.859375.460937-.304687.125-.617187.21875-.941406.28125-.316406.0625-.644531.097657-.96875.09375zm0 0" fill="#60bae2"/><g fill="#231f20"><path d="m252.109375 197.292969c-1.847656-.007813-3.695313-.167969-5.515625-.476563-2.554688-.40625-4.375-2.691406-4.203125-5.269531.117187-1.703125.167969-3.105469.167969-4.414063v-48.800781c0-1.3125-.054688-2.722656-.167969-4.441406-.171875-2.578125 1.648437-4.863281 4.199219-5.269531 18.839844-3.050782 36.585937 9.75 39.636718 28.589844 3.050782 18.839843-9.753906 36.585937-28.59375 39.636718-1.824218.296875-3.671874.445313-5.523437.445313zm.457031-59.113281v49.109374c13.5625-.242187 24.359375-11.4375 24.113282-25-.238282-13.214843-10.894532-23.875-24.113282-24.109374zm0 0"/><path d="m101.410156 197.292969c-19.085937.015625-34.570312-15.445313-34.585937-34.53125-.011719-19.085938 15.449219-34.574219 34.535156-34.585938 1.867187-.003906 3.730469.144531 5.574219.445313 2.554687.410156 4.375 2.695312 4.199218 5.277344-.113281 1.699218-.167968 3.109374-.167968 4.4375v48.800781c0 1.320312.054687 2.722656.167968 4.410156.171876 2.578125-1.648437 4.863281-4.199218 5.273437-1.828125.304688-3.671875.464844-5.523438.472657zm-.453125-59.113281c-13.5625.242187-24.359375 11.4375-24.113281 25 .238281 13.214843 10.894531 23.871093 24.113281 24.109374zm0 0"/><path d="m176.757812 262.9375c-41.847656-.050781-75.753906-33.957031-75.800781-75.800781v-56.957031c-.007812-4.847657 3.914063-8.78125 8.757813-8.792969.621094 0 1.234375.066406 1.839844.191406 13.722656 2.875 48.203124 6.339844 71.898437-23.460937 3.019531-3.8125 8.566406-4.457032 12.378906-1.429688.242188.191406.476563.398438.699219.617188 4.914062 4.816406 19.375 16.105468 47.511719 16.929687 4.683593.140625 8.429687 3.9375 8.507812 8.621094 0 .402343.011719.800781.011719 1.199219v63.078124c-.046875 41.847657-33.960938 75.757813-75.804688 75.804688zm-65.800781-131.273438v55.46875c-.007812 36.339844 29.441407 65.808594 65.785157 65.816407 36.34375.007812 65.804687-29.445313 65.8125-65.789063 0-.007812 0-.019531 0-.027344v-62.933593c-28.515626-1.113281-44.597657-11.867188-52.089844-18.84375-26.875 32.734375-65.925782 28.882812-79.507813 26.308593zm0 0"/><path d="m272.605469 146.46875c-1.292969 0-2.539063-.5-3.472657-1.398438-4.5625-4.425781-10.671874-6.902343-17.03125-6.894531-1.265624.003907-2.53125.105469-3.78125.300781-2.726562.417969-5.28125-1.449218-5.703124-4.179687-.039063-.253906-.058594-.507813-.058594-.761719v-9.335937c-28.515625-1.113281-44.589844-11.867188-52.089844-18.84375-26.882812 32.742187-65.933594 28.878906-79.511719 26.308593v1.871094c0 2.761719-2.238281 5-5 5-.257812 0-.511719-.019531-.761719-.058594-1.253906-.195312-2.515624-.292968-3.785156-.296874-5.570312-.019532-10.980468 1.882812-15.316406 5.382812-2.15625 1.726562-5.304688 1.375-7.03125-.78125-.707031-.886719-1.09375-1.988281-1.09375-3.125v-32.746094c.050781-43.101562 34.980469-78.03125 78.082031-78.082031h20.765625c14.300782.074219 27.734375 6.835937 36.316406 18.277344 5.957032-2.789063 12.453126-4.238281 19.027344-4.246094 25.085938.027344 45.414063 20.355469 45.445313 45.441406v53.167969c0 2.761719-2.238281 5-5 5zm-20.046875-18.289062c5.230468.058593 10.378906 1.3125 15.046875 3.667968v-43.546875c.066406-19.507812-15.695313-35.375-35.203125-35.441406-6.457032-.023437-12.796875 1.722656-18.328125 5.054687-2.367188 1.417969-5.441407.652344-6.859375-1.71875-6.402344-10.703124-17.929688-17.289062-30.402344-17.367187h-20.761719c-37.582031.042969-68.039062 30.5-68.082031 68.082031v23.976563c4.179688-1.773438 8.671875-2.691407 13.214844-2.710938.433594-1.890625 1.492187-3.578125 3-4.800781 2.054687-1.675781 4.765625-2.335938 7.363281-1.785156 13.722656 2.871094 48.199219 6.339844 71.898437-23.460938 3.011719-3.816406 8.542969-4.464844 12.359376-1.453125.25.199219.492187.410157.71875.636719 4.914062 4.816406 19.375 16.105469 47.511718 16.929688 4.683594.140624 8.429688 3.9375 8.507813 8.621093 0 .402344.011719.800781.011719 1.199219zm0 0"/><path d="m177.785156 347.949219c-.328125-.003907-.65625-.039063-.980468-.101563-.644532-.121094-1.253907-.375-1.796876-.738281-.273437-.183594-.527343-.394531-.761718-.621094-.929688-.945312-1.453125-2.214843-1.460938-3.539062.003906-.332031.035156-.660157.101563-.980469.066406-.324219.15625-.636719.28125-.941406.121093-.300782.277343-.589844.457031-.863282.191406-.265624.398438-.519531.621094-.757812.234375-.226562.488281-.4375.761718-.621094.542969-.367187 1.152344-.617187 1.796876-.738281 1.640624-.316406 3.328124.191406 4.519531 1.359375.226562.238281.433593.492188.621093.757812.179688.273438.335938.5625.460938.863282.246094.609375.375 1.261718.378906 1.921875.007813 2.753906-2.21875 4.992187-4.972656 5-.007812 0-.015625 0-.027344 0zm0 0"/><path d="m177.785156 379.488281c-2.75.007813-4.992187-2.214843-5-4.964843 0-.003907 0-.007813 0-.011719.003906-.328125.035156-.65625.101563-.980469.0625-.320312.15625-.636719.28125-.941406.117187-.300782.273437-.59375.457031-.859375.179688-.273438.390625-.53125.621094-.761719 1.996094-1.851562 5.082031-1.851562 7.078125 0 .234375.230469.445312.488281.621093.761719.183594.265625.339844.558593.460938.859375.125.304687.21875.621094.28125.941406.0625.324219.097656.652344.097656.980469 0 2.75-2.234375 4.980469-4.988281 4.976562-.003906 0-.007813 0-.011719 0zm0 0"/><path d="m177.785156 411.050781c-1.324218-.011719-2.589844-.535156-3.539062-1.460937-.222656-.238282-.429688-.492188-.621094-.761719-.183594-.273437-.339844-.566406-.457031-.875-.125-.296875-.21875-.605469-.28125-.921875-.132813-.644531-.132813-1.3125 0-1.960938.125-.640624.375-1.253906.738281-1.796874.363281-.550782.832031-1.019532 1.382812-1.378907.542969-.367187 1.152344-.617187 1.796876-.742187.648437-.136719 1.316406-.136719 1.960937 0 .644531.125 1.257813.375 1.800781.742187.546875.363281 1.019532.828125 1.378906 1.378907.179688.269531.335938.558593.460938.859374.125.304688.21875.617188.28125.941407.128906.644531.128906 1.3125 0 1.960937-.0625.316406-.15625.621094-.28125.917969-.121094.308594-.277344.601563-.460938.878906-.1875.265625-.394531.519531-.621093.761719-.230469.226562-.484375.4375-.757813.621094-.277344.171875-.5625.324218-.859375.457031-.609375.246094-1.261719.375-1.921875.378906zm0 0"/><path d="m177.785156 442.585938c-.328125-.003907-.65625-.035157-.980468-.097657-.320313-.066406-.632813-.160156-.9375-.28125-.300782-.125-.589844-.277343-.859376-.460937-.550781-.359375-1.019531-.828125-1.382812-1.375s-.613281-1.15625-.738281-1.800782c-.132813-.644531-.132813-1.3125 0-1.957031.0625-.324219.15625-.640625.28125-.945312.121093-.296875.277343-.585938.457031-.859375.183594-.269532.394531-.523438.621094-.757813.238281-.226562.492187-.433593.761718-.621093.269532-.183594.558594-.335938.859376-.460938.304687-.121094.617187-.214844.9375-.28125.648437-.136719 1.316406-.136719 1.960937 0 .644531.125 1.257813.375 1.800781.742188.269532.183593.523438.390624.757813.621093.929687.945313 1.453125 2.214844 1.460937 3.539063-.003906.328125-.039062.65625-.097656.980468-.0625.320313-.15625.636719-.28125.941407-.125.300781-.28125.589843-.460938.859375-.1875.265625-.394531.519531-.621093.761718-.234375.226563-.488281.433594-.757813.617188-.542968.367188-1.15625.621094-1.800781.742188-.324219.0625-.652344.09375-.980469.09375zm0 0"/><path d="m177.785156 474.148438c-1.328125-.003907-2.601562-.535157-3.539062-1.480469-.230469-.226563-.441406-.484375-.621094-.757813-.183594-.269531-.339844-.558594-.457031-.859375-.125-.304687-.21875-.617187-.28125-.941406-.132813-.640625-.132813-1.300781 0-1.941406.0625-.320313.15625-.636719.28125-.941407.117187-.300781.273437-.589843.457031-.859374.179688-.273438.386719-.53125.621094-.757813 1.1875-1.175781 2.878906-1.695313 4.519531-1.382813.324219.066407.640625.164063.941406.300782.300781.125.585938.277344.859375.457031.277344.179687.53125.390625.757813.625.234375.226563.445312.484375.621093.757813.183594.269531.339844.558593.460938.859374.125.304688.21875.621094.28125.941407.128906.640625.128906 1.300781 0 1.941406-.0625.324219-.15625.636719-.28125.941406-.121094.300781-.277344.589844-.460938.859375-.175781.273438-.386718.53125-.621093.757813-.226563.234375-.480469.445312-.757813.625-.273437.179687-.558594.332031-.859375.457031-.304687.128906-.617187.226562-.941406.300781-.320313.0625-.648437.09375-.980469.097657zm0 0"/><path d="m86.933594 512c-2.761719 0-5-2.238281-5-5v-118.46875c0-2.761719 2.238281-5 5-5 2.761718 0 5 2.238281 5 5v118.46875c0 2.761719-2.238282 5-5 5zm0 0"/><path d="m189.121094 316.800781h-23.742188c-4.621094-.007812-8.816406-2.71875-10.722656-6.929687l-14.046875-31.183594c-.292969-.644531-.441406-1.34375-.441406-2.054688v-26.199218c0-2.761719 2.238281-5 5.003906-4.996094.777344 0 1.546875.179688 2.242187.53125 9.097657 4.601562 19.148438 6.988281 29.34375 6.972656 10.917969-.007812 21.660157-2.746094 31.253907-7.957031 2.421875-1.328125 5.460937-.4375 6.785156 1.984375.40625.742188.617187 1.570312.613281 2.414062v27.265626c0 .753906-.167968 1.5-.5 2.179687l-15.199218 31.355469c-1.984376 4.039062-6.085938 6.605468-10.589844 6.617187zm-38.953125-41.238281 13.601562 30.199219c.28125.628906.910157 1.035156 1.597657 1.039062h23.742187c.675781-.003906 1.289063-.394531 1.585937-1l14.695313-30.324219v-18.199218c-9.089844 3.730468-18.820313 5.652344-28.648437 5.660156-9.082032.015625-18.09375-1.628906-26.585938-4.851562zm0 0"/><path d="m177.785156 223.621094c-10.765625.003906-20.828125-5.347656-26.84375-14.273438-1.546875-2.289062-.945312-5.398437 1.34375-6.945312 2.285156-1.542969 5.398438-.941406 6.941406 1.34375 6.914063 10.25 20.824219 12.957031 31.074219 6.046875 2.386719-1.609375 4.4375-3.660157 6.046875-6.046875 1.542969-2.285156 4.65625-2.886719 6.941406-1.34375 2.289063 1.546875 2.890626 4.65625 1.34375 6.945312-6.015624 8.925782-16.082031 14.277344-26.847656 14.273438zm0 0"/><path d="m150.785156 167.730469c-.328125.003906-.65625-.027344-.980468-.101563-.316407-.0625-.621094-.15625-.917969-.28125-.300781-.121094-.59375-.273437-.859375-.457031-.285156-.179687-.546875-.386719-.78125-.621094-.222656-.242187-.429688-.496093-.621094-.761719-.175781-.273437-.332031-.558593-.457031-.859374-.125-.304688-.21875-.617188-.28125-.941407-.066407-.320312-.097657-.648437-.101563-.980469.007813-1.324218.53125-2.59375 1.460938-3.539062.242187-.230469.503906-.4375.78125-.621094.273437-.175781.558594-.332031.859375-.457031.296875-.125.601562-.21875.917969-.285156 2.699218-.546875 5.332031 1.191406 5.882812 3.890625.066406.332031.101562.671875.097656 1.011718.007813.328126-.023437.65625-.097656.980469-.0625.320313-.15625.636719-.28125.9375-.121094.304688-.277344.59375-.460938.863281-.183593.269532-.390624.523438-.621093.757813-.226563.234375-.480469.445313-.757813.621094-.269531.183593-.558594.339843-.859375.460937-.304687.121094-.617187.214844-.941406.28125-.320313.074219-.648437.105469-.980469.101563zm0 0"/><path d="m204.785156 167.730469c-.328125.007812-.65625-.027344-.980468-.101563-.320313-.0625-.632813-.15625-.9375-.28125-.304688-.121094-.59375-.273437-.859376-.457031-.277343-.179687-.53125-.390625-.761718-.621094-.226563-.234375-.4375-.488281-.621094-.761719-.183594-.269531-.339844-.554687-.457031-.859374-.125-.304688-.21875-.617188-.28125-.941407-.074219-.320312-.109375-.648437-.101563-.980469-.003906-.320312.027344-.644531.101563-.957031.0625-.324219.15625-.636719.28125-.941406.121093-.304687.277343-.601563.457031-.878906.183594-.269531.390625-.527344.621094-.761719 1.1875-1.175781 2.878906-1.6875 4.519531-1.359375.316406.0625.625.15625.921875.28125.296875.128906.585938.28125.859375.457031.273437.179688.527344.390625.757813.621094.941406.9375 1.476562 2.210938 1.480468 3.542969 0 .328125-.035156.65625-.097656.980469-.0625.320312-.15625.636718-.28125.9375-.128906.300781-.28125.585937-.460938.863281-.1875.269531-.402343.523437-.640624.757812-.226563.242188-.480469.449219-.757813.621094-.269531.183594-.558594.339844-.859375.460937-.296875.121094-.605469.214844-.921875.28125-.320313.070313-.648437.101563-.980469.097657zm0 0"/><path d="m221.4375 342.042969c-3.347656.003906-6.515625-1.523438-8.601562-4.144531l-21.527344-26.777344c-1.210938-1.503906-1.445313-3.574219-.601563-5.3125l15.199219-31.355469c1.207031-2.484375 4.199219-3.519531 6.683594-2.316406.007812.003906.019531.011719.027344.015625l33.078124 16.308594c2.351563 1.15625 3.410157 3.9375 2.421876 6.363281l-16.355469 40.296875c-1.464844 3.652344-4.769531 6.246094-8.664063 6.796875-.550781.082031-1.105468.125-1.660156.125zm-20.351562-34.71875 19.542968 24.308593c.238282.308594.625.460938 1.007813.398438.390625-.046875.71875-.304688.855469-.667969l14.601562-35.988281-24.402344-12.023438zm0 0"/><path d="m134.136719 342.042969c-.550781 0-1.105469-.039063-1.652344-.121094-3.898437-.550781-7.203125-3.144531-8.667969-6.800781l-16.355468-40.292969c-.988282-2.429687.070312-5.207031 2.421874-6.367187l33.078126-16.308594c2.476562-1.21875 5.472656-.199219 6.695312 2.277344.027344.050781.050781.101562.074219.15625l14.046875 31.183593c.035156.082031.082031.160157.132812.230469 1.207032 1.816406 1.097656 4.203125-.269531 5.898438l-20.902344 26c-2.085937 2.621093-5.253906 4.148437-8.601562 4.144531zm-1.058594-10.683594c.230469.558594.867187.828125 1.429687.597656.171876-.070312.320313-.179687.4375-.324219l18.914063-23.53125-11.125-24.703124-24.261719 11.964843zm0 0"/><path d="m223.613281 411.046875h-17.410156c-2.761719 0-5-2.238281-5-5s2.238281-5 5-5h17.410156c2.761719 0 5 2.238281 5 5s-2.238281 5-5 5zm0 0"/></g><path d="m327.878906 33.441406c-8.902344-1.707031-15.863281-8.664062-17.570312-17.5625-.050782-.21875-.265625-.351562-.480469-.304687-.148437.035156-.265625.152343-.300781.304687-1.707032 8.898438-8.664063 15.851563-17.5625 17.5625-.214844.046875-.347656.261719-.300782.476563.035157.148437.152344.265625.300782.300781 8.898437 1.710938 15.855468 8.664062 17.5625 17.5625.050781.214844.265625.351562.480468.300781.148438-.03125.265626-.148437.300782-.300781 1.707031-8.898438 8.664062-15.851562 17.5625-17.5625.214844-.042969.351562-.257812.304687-.476562-.03125-.148438-.148437-.265626-.296875-.300782zm0 0" fill="#ffae2c"/><path d="m247.558594 9.988281c-1.324219-.003906-2.597656-.527343-3.535156-1.457031-.234376-.234375-.4375-.488281-.621094-.761719-.179688-.273437-.335938-.566406-.460938-.871093-.125-.296876-.21875-.609376-.28125-.929688-.066406-.320312-.101562-.648438-.097656-.980469-.003906-.328125.03125-.65625.097656-.976562.0625-.320313.15625-.628907.28125-.929688.125-.304687.28125-.597656.460938-.871093.183594-.273438.386718-.527344.621094-.757813 1.433593-1.4179688 3.578124-1.839844 5.445312-1.078125.300781.125.585938.28125.859375.457031.273437.179688.53125.386719.761719.621094.226562.234375.4375.488281.617187.761719.179688.273437.335938.566406.460938.867187s.222656.613281.289062.929688c.066407.320312.097657.648437.101563.980469-.003906.328124-.035156.65625-.101563.980468-.066406.316406-.164062.628906-.289062.929688-.125.304687-.28125.59375-.460938.871094-.179687.269531-.390625.527343-.617187.757812-.230469.234375-.488282.441406-.761719.621094-.273437.175781-.558594.332031-.859375.460937-.304688.121094-.617188.214844-.941406.277344-.320313.066406-.644532.097656-.96875.097656zm0 0" fill="#fcd770"/><path d="m420.542969 512h-184.660157c-9.535156-.011719-17.261718-7.734375-17.269531-17.269531v-126.628907c.007813-9.535156 7.734375-17.261718 17.269531-17.273437h185.824219c8.894531.011719 16.101563 7.21875 16.109375 16.113281v127.789063c-.007812 9.535156-7.738281 17.261719-17.273437 17.269531zm-184.664063-151.167969c-4.011718.003907-7.265625 3.253907-7.269531 7.269531v126.628907c.003906 4.011719 3.257813 7.265625 7.273437 7.269531h184.660157c4.015625-.003906 7.265625-3.257812 7.269531-7.269531v-127.789063c-.003906-3.375-2.734375-6.109375-6.109375-6.113281zm0 0" fill="#231f20"/><path d="m235.875 512h-189.988281c-6.46875.027344-12.660157-2.636719-17.089844-7.355469-4.433594-4.703125-6.746094-11.019531-6.398437-17.476562l8.640624-155.121094c.746094-14.414063 10.839844-26.644531 24.851563-30.113281l54.464844-13.707032 32.601562-16.074218c2.476563-1.222656 5.472657-.203125 6.695313 2.273437.003906.007813.007812.019531.015625.027344l15.199219 31.355469c.292968.605468.910156.996094 1.585937 1h22.667969c.675781-.003906 1.289062-.394532 1.585937-1l15.199219-31.355469c1.207031-2.484375 4.195312-3.523437 6.679688-2.316406.011718.003906.019531.007812.03125.011719l32.597656 16.074218 54.472656 13.710938c7.273438 1.847656 13.703125 6.117187 18.226562 12.105468 1.664063 2.203126 1.230469 5.339844-.972656 7.003907-.867187.660156-1.925781 1.011719-3.015625 1.011719h-13.164062c-2.757813.15625-4.867188 2.519531-4.710938 5.273437.144531 2.539063 2.171875 4.566406 4.710938 4.710937h19.039062c2.65625-.003906 4.851563 2.070313 5 4.722657l1.046875 18.789062c.15625 2.757813-1.957031 5.117188-4.710937 5.269531-.097657.007813-.191407.007813-.289063.007813h-84.964844c-4.015624.003906-7.265624 3.257813-7.269531 7.273437v126.625c0 4.011719 3.25 7.265626 7.261719 7.273438 2.761719 0 5 2.238281 5 5s-2.238281 5-5 5zm-93.007812-228.652344-28.558594 14.082032c-.320313.152343-.65625.277343-1 .363281l-54.988282 13.839843c-9.753906 2.417969-16.777343 10.929688-17.296874 20.96875l-8.640626 155.117188c-.417968 7.460938 5.289063 13.84375 12.746094 14.257812.25.015626.503906.023438.757813.023438h174.332031c-1.058594-2.277344-1.605469-4.757812-1.601562-7.269531v-126.628907c.011718-9.535156 7.738281-17.257812 17.269531-17.273437h79.683593l-.488281-8.789063h-14.308593c-8.285157-.066406-14.949219-6.832031-14.882813-15.117187.058594-7.519531 5.675781-13.835937 13.140625-14.765625-.582031-.199219-1.171875-.375-1.773438-.523438l-55-13.839843c-.347656-.085938-.679687-.210938-1-.367188l-28.550781-14.078125-13 26.820313c-1.976562 4.046875-6.082031 6.617187-10.582031 6.632812h-22.675781c-4.5-.015625-8.605469-2.589843-10.582031-6.632812zm0 0" fill="#231f20"/><path d="m355.65625 342.042969h-54.890625c-8.28125-.269531-14.773437-7.203125-14.5-15.484375.257813-7.898438 6.601563-14.242188 14.5-14.5h54.894531c8.28125.269531 14.773438 7.203125 14.5 15.480468-.257812 7.902344-6.601562 14.246094-14.5 14.503907zm-54.890625-19.984375c-2.757813.15625-4.867187 2.515625-4.710937 5.273437.144531 2.539063 2.167968 4.566407 4.710937 4.710938h54.890625c2.761719-.15625 4.867188-2.519531 4.710938-5.273438-.144532-2.539062-2.167969-4.566406-4.710938-4.710937zm0 0" fill="#231f20"/><path d="m390.578125 360.835938c-2.761719 0-5-2.238282-5-5v-15.570313c-.007813-4.535156-3.679687-8.207031-8.210937-8.214844h-7.574219c-2.121094 5.988281-7.78125 9.992188-14.132813 10h-54.894531c-6.351563-.007812-12.011719-4.011719-14.132813-10h-7.574218c-4.53125.007813-8.207032 3.679688-8.210938 8.214844v15.570313c0 2.761718-2.238281 5-5 5-2.761718 0-5-2.238282-5-5v-15.570313c.011719-10.054687 8.160156-18.203125 18.210938-18.214844h11.714844c2.761718 0 5 2.238281 5 5s2.238281 5 5 5h54.894531c2.761719 0 5-2.238281 5-5s2.238281-5 5-5h11.714843c10.054688.011719 18.199219 8.160157 18.210938 18.214844v15.570313c0 2.761718-2.238281 5-5 5-.003906 0-.007812 0-.015625 0zm0 0" fill="#231f20"/><path d="m348.164062 445.855469h-39.902343c-8.28125.269531-15.214844-6.222657-15.484375-14.503907-.269532-8.28125 6.222656-15.210937 14.503906-15.480468.324219-.011719.652344-.011719.980469 0h39.90625c8.277343.269531 14.769531 7.199218 14.5 15.480468-.257813 7.898438-6.601563 14.246094-14.503907 14.503907zm-39.90625-19.984375c-2.757812-.15625-5.117187 1.949218-5.273437 4.707031s1.953125 5.121094 4.710937 5.277344c.1875.007812.375.007812.566407 0h39.90625c2.757812-.15625 4.863281-2.519531 4.707031-5.277344-.144531-2.535156-2.167969-4.5625-4.707031-4.707031zm0 0" fill="#231f20"/><path d="m328.210938 463.308594c-8.28125 0-15-6.714844-15-15v-7.460938c0-2.761718 2.238281-5 5-5h19.984374c2.761719 0 5 2.238282 5 5v7.460938c0 8.277344-6.707031 14.992187-14.984374 15zm-5-17.453125v2.460937c-.15625 2.757813 1.953124 5.117188 4.710937 5.273438s5.117187-1.953125 5.273437-4.710938c.011719-.1875.011719-.378906 0-.566406v-2.460938h-9.984374zm0 0" fill="#231f20"/><path d="m420.542969 436.414062h-62.414063c-2.761718.003907-5.003906-2.226562-5.007812-4.988281 0-.101562 0-.203125.007812-.300781 0-.019531.011719-.1875.011719-.199219.027344-2.765625-2.191406-5.023437-4.953125-5.046875-.007812 0-.019531 0-.03125 0h-39.894531c-2.765625 0-5 2.238282-5 5l.019531.285156c.148438 2.761719-1.96875 5.113282-4.726562 5.261719-.089844.003907-.179688.007813-.273438.007813h-62.398438c-9.535156-.015625-17.257812-7.738282-17.269531-17.273438v-51.058594c.011719-9.535156 7.734375-17.257812 17.269531-17.273437h185.824219c8.894531.011719 16.101563 7.21875 16.109375 16.113281v52.199219c-.007812 9.539063-7.738281 17.265625-17.273437 17.273437zm-58.058594-10h58.058594c4.011719-.003906 7.265625-3.253906 7.269531-7.269531v-52.199219c-.003906-3.375-2.738281-6.105468-6.109375-6.109374h-185.820313c-4.015624.003906-7.265624 3.257812-7.269531 7.269531v51.042969c.003907 4.015624 3.253907 7.265624 7.269531 7.269531h58.058594c1.953125-6.265625 7.753906-10.535157 14.320313-10.542969h39.90625c6.558593.007812 12.359375 4.277344 14.316406 10.539062zm0 0" fill="#231f20"/><path d="m352.609375 380.816406h-48.800781c-9.957032-.011718-18.027344-8.082031-18.039063-18.039062v-6.949219c0-2.761719 2.238281-5 5-5h74.875c2.761719 0 5 2.238281 5 5v6.949219c-.011719 9.957031-8.078125 18.027344-18.035156 18.039062zm-56.835937-19.984375v1.949219c.003906 4.4375 3.601562 8.035156 8.039062 8.039062h48.800781c4.441407-.003906 8.039063-3.601562 8.042969-8.039062v-1.949219zm0 0" fill="#231f20"/><path d="m367.738281 301.128906h-12.179687c-7.777344-.011718-14.082032-6.316406-14.089844-14.09375v-3.1875c-2.453125-.839844-4.851562-1.835937-7.183594-2.976562l-2.253906 2.253906c-5.503906 5.496094-14.421875 5.496094-19.925781 0l-8.613281-8.613281c-5.503907-5.5-5.503907-14.425781-.003907-19.925781 0 0 .003907-.003907.003907-.003907l2.25-2.253906c-1.140626-2.328125-2.132813-4.726563-2.976563-7.183594h-3.1875c-7.777344-.007812-14.082031-6.3125-14.089844-14.089843v-12.179688c.007813-7.78125 6.3125-14.085938 14.089844-14.09375h3.1875c.84375-2.453125 1.835937-4.851562 2.976563-7.183594l-2.253907-2.253906c-5.503906-5.507812-5.503906-14.425781 0-19.929688l8.621094-8.613281c5.496094-5.503906 14.417969-5.507812 19.917969-.007812.003906 0 .003906.003906.007812.007812l2.253906 2.253907c2.332032-1.140626 4.730469-2.136719 7.183594-2.976563v-3.183594c.007813-7.777343 6.3125-14.082031 14.09375-14.089843h12.175782c7.78125.007812 14.085937 6.3125 14.09375 14.089843v3.1875c2.453124.84375 4.855468 1.835938 7.183593 2.976563l2.253907-2.253906c5.507812-5.496094 14.421874-5.496094 19.929687 0l8.609375 8.613281c5.492188 5.507812 5.492188 14.417969 0 19.929687l-2.257812 2.253906c1.144531 2.328126 2.136718 4.726563 2.980468 7.183594h3.1875c7.777344.007813 14.082032 6.3125 14.089844 14.089844v12.179688c-.007812 7.777343-6.3125 14.082031-14.089844 14.09375h-3.1875c-.84375 2.453124-1.835937 4.851562-2.980468 7.183593l2.257812 2.253907c5.5 5.503906 5.503906 14.425781 0 19.929687l-8.609375 8.613281c-5.507813 5.496094-14.421875 5.496094-19.929687 0l-2.253907-2.253906c-2.328125 1.140625-4.730469 2.132812-7.183593 2.976562v3.1875c-.011719 7.777344-6.316407 14.082032-14.097657 14.089844zm-33.832031-30.664062c1.316406 0 2.609375.320312 3.773438.925781 2.597656 1.339844 5.304687 2.464844 8.089843 3.351563 3.394531 1.070312 5.699219 4.226562 5.691407 7.785156v4.511718c.003906 2.257813 1.832031 4.085938 4.089843 4.089844h12.179688c2.257812-.003906 4.089843-1.832031 4.089843-4.089844v-4.511718c-.007812-3.558594 2.300782-6.714844 5.695313-7.785156 2.785156-.886719 5.492187-2.011719 8.09375-3.355469 3.160156-1.644531 7.023437-1.042969 9.535156 1.480469l3.1875 3.1875c1.601563 1.59375 4.1875 1.59375 5.789063 0l8.609375-8.613282c1.597656-1.59375 1.597656-4.183594.003906-5.78125 0 0-.003906-.003906-.003906-.003906l-3.199219-3.199219c-2.523438-2.511719-3.125-6.375-1.476562-9.53125 1.34375-2.597656 2.464843-5.304687 3.351562-8.09375 1.074219-3.394531 4.226562-5.703125 7.789062-5.695312h4.507813c2.257813-.003907 4.089844-1.832031 4.089844-4.089844v-12.179687c0-2.257813-1.832031-4.089844-4.089844-4.09375h-4.507813c-3.5625.007812-6.714843-2.296876-7.789062-5.691407-.886719-2.789062-2.007812-5.496093-3.351562-8.09375-1.648438-3.160156-1.046876-7.023437 1.480468-9.535156l3.1875-3.191406c1.59375-1.601563 1.59375-4.1875 0-5.789063l-8.613281-8.609375c-1.597656-1.59375-4.1875-1.59375-5.789063 0l-3.199218 3.1875c-2.511719 2.527344-6.375 3.128907-9.53125 1.480469-2.601563-1.34375-5.304688-2.464844-8.09375-3.355469-3.394532-1.070312-5.703125-4.226562-5.695313-7.785156v-4.496094c0-2.257812-1.832031-4.089843-4.089843-4.089843h-12.179688c-2.257812 0-4.089844 1.832031-4.089844 4.089843v4.503907c.007813 3.5625-2.300781 6.714843-5.695312 7.789062-2.785156.886719-5.492188 2.007812-8.09375 3.351562-3.160156 1.648438-7.023438 1.046876-9.535156-1.480468l-3.1875-3.1875c-1.617188-1.546875-4.167969-1.546875-5.785157 0l-8.613281 8.613281c-1.597656 1.597656-1.597656 4.1875 0 5.789063l3.199219 3.199218c2.527343 2.511719 3.125 6.375 1.476562 9.535156-1.34375 2.597657-2.46875 5.304688-3.355469 8.089844-1.070312 3.394532-4.226562 5.703125-7.785156 5.695313h-4.507812c-2.261719 0-4.089844 1.832031-4.09375 4.089843v12.179688c.003906 2.261719 1.832031 4.089844 4.09375 4.09375h4.507812c3.558594-.007812 6.714844 2.296875 7.785156 5.691406.886719 2.789063 2.011719 5.496094 3.355469 8.09375 1.648438 3.160156 1.046875 7.027344-1.484375 9.539063l-3.183594 3.1875c-1.597656 1.597656-1.597656 4.183593-.003906 5.78125 0 0 .003906.003906.003906.003906l8.613282 8.613281c1.601562 1.59375 4.1875 1.59375 5.789062 0l3.1875-3.1875c1.527344-1.546875 3.609375-2.414062 5.777344-2.414062zm27.742188-7.023438c-21.25 0-38.472657-17.222656-38.472657-38.472656 0-21.246094 17.222657-38.472656 38.472657-38.472656 21.246093 0 38.472656 17.226562 38.472656 38.472656-.027344 21.234375-17.234375 38.441406-38.46875 38.46875zm0-66.945312c-15.722657 0-28.472657 12.746094-28.472657 28.472656 0 15.722656 12.75 28.472656 28.472657 28.472656 15.722656 0 28.472656-12.75 28.472656-28.472656-.019532-15.71875-12.753906-28.453125-28.46875-28.476562zm0 0" fill="#231f20"/></svg>