<?xml version="1.0" encoding="utf-8"?>
<!-- Generator: Adobe Illustrator 22.0.1, SVG Export Plug-In . SVG Version: 6.00 Build 0)  -->
<svg version="1.1" id="Layer_1" xmlns="http://www.w3.org/2000/svg" xmlns:xlink="http://www.w3.org/1999/xlink" x="0px" y="0px"
	 viewBox="0 0 23.2 23.7" style="enable-background:new 0 0 23.2 23.7;" xml:space="preserve">
<g id="_001-museum" transform="translate(-0.089 -0.001)">
	<path id="Path_67" d="M0.5,6.6c0,0,0,0.1,0,0.1v1c0,0.4,0.3,0.8,0.6,0.9V10c0,0.5,0.4,0.9,0.9,0.9v8.3c-0.5,0-0.9,0.4-0.9,0.9v1.4
		c-0.4,0.1-0.6,0.5-0.6,0.9v1c0,0.2,0.1,0.3,0.3,0.3h21.7c0.2,0,0.3-0.1,0.3-0.3c0,0,0,0,0,0v-1c0-0.4-0.2-0.8-0.6-0.9v-1.4
		c0-0.5-0.4-0.9-0.9-0.9v-8.3c0.5,0,0.9-0.4,0.9-0.9V8.6c0.4-0.1,0.6-0.5,0.6-0.9v-1c0,0,0-0.1,0-0.1c0.2,0.1,0.4,0,0.4-0.2
		s0-0.4-0.2-0.4L11.9,0c-0.1,0-0.2,0-0.3,0L0.3,6C0.1,6,0,6.2,0.1,6.4C0.2,6.5,0.4,6.6,0.5,6.6z M1.8,9.1V8.6h3.7v0.5L1.8,9.1z
		 M10.1,10.9v8.3c-0.5,0-0.9,0.4-0.9,0.9v1.4H6.1v-1.4c0-0.5-0.4-0.9-0.9-0.9v-8.3c0.5,0,0.9-0.4,0.9-0.9V8.6h3.1V10
		C9.2,10.5,9.6,10.9,10.1,10.9L10.1,10.9z M9.8,9.1V8.6h3.7v0.5L9.8,9.1z M18.1,10.9v8.3c-0.5,0-0.9,0.4-0.9,0.9v1.4h-3.1v-1.4
		c0-0.5-0.4-0.9-0.9-0.9v-8.3c0.5,0,0.9-0.4,0.9-0.9V8.6h3.1V10C17.3,10.5,17.6,10.9,18.1,10.9L18.1,10.9z M17.9,9.1V8.6h3.7v0.5
		L17.9,9.1z M21.6,21v0.5h-3.7V21H21.6z M13.6,21v0.5H9.8V21H13.6z M10.4,10.3h-0.3c-0.1,0-0.3-0.1-0.3-0.3v0V9.8h3.7V10
		c0,0.1-0.1,0.3-0.3,0.3h0L10.4,10.3z M12.7,10.9v8.3h-2v-8.3H12.7z M10.4,19.8h2.9c0.1,0,0.3,0.1,0.3,0.3v0.2H9.8v-0.2
		c0-0.1,0.1-0.3,0.3-0.3L10.4,19.8z M5.5,21v0.5H1.8V21H5.5z M1.8,10V9.8h3.7V10c0,0.1-0.1,0.3-0.3,0.3c0,0,0,0,0,0H2
		C1.9,10.3,1.8,10.1,1.8,10L1.8,10z M4.6,10.9v8.3h-2v-8.3L4.6,10.9z M1.8,20.1c0-0.1,0.1-0.3,0.3-0.3h3.2c0.1,0,0.3,0.1,0.3,0.3
		c0,0,0,0,0,0v0.2H1.8V20.1z M22.3,22.5v0.6H1.2v-0.6c0-0.2,0.1-0.3,0.3-0.3h0h20.4C22.1,22.1,22.2,22.3,22.3,22.5L22.3,22.5z
		 M21.6,20.1v0.2h-3.7v-0.2c0-0.1,0.1-0.3,0.3-0.3h3.2C21.5,19.8,21.6,20,21.6,20.1L21.6,20.1z M18.8,19.2v-8.3h2v8.3H18.8z
		 M21.6,10c0,0.1-0.1,0.3-0.3,0.3h-3.2c-0.1,0-0.3-0.1-0.3-0.3V9.8h3.7L21.6,10z M11.7,0.7l9.6,5H2.1L11.7,0.7z M1.2,6.7
		c0-0.2,0.1-0.3,0.3-0.3l0,0h20.5c0.2,0,0.3,0.1,0.3,0.3v0v1c0,0.2-0.1,0.3-0.3,0.3c0,0,0,0,0,0H1.5C1.3,8,1.2,7.9,1.2,7.7l0,0V6.7z
		"/>
</g>
</svg>
