<?xml version="1.0" encoding="utf-8"?>
<!-- Generator: Adobe Illustrator 22.0.1, SVG Export Plug-In . SVG Version: 6.00 Build 0)  -->
<svg version="1.1" id="Layer_1" xmlns="http://www.w3.org/2000/svg" xmlns:xlink="http://www.w3.org/1999/xlink" x="0px" y="0px"
	 viewBox="0 0 18.3 23.4" style="enable-background:new 0 0 18.3 23.4;" xml:space="preserve">
<g id="_003-calculator" transform="translate(-6.5)">
	<path id="Path_79" d="M23.7,0h-16C7,0,6.5,0.5,6.5,1.1v21.1c0,0.6,0.5,1.1,1.1,1.1h16c0.6,0,1.1-0.5,1.1-1.1V1.1
		C24.8,0.5,24.3,0,23.7,0z M24,22.2c0,0.2-0.2,0.4-0.4,0.4h-16c-0.2,0-0.4-0.2-0.4-0.4V1.1c0-0.2,0.2-0.4,0.4-0.4h16
		c0.2,0,0.4,0.2,0.4,0.4V22.2z"/>
	<path id="Path_80" d="M8.4,21.4h4.3v-4.3H8.4V21.4z M9.2,17.9H12v2.7H9.2V17.9z"/>
	<path id="Path_81" d="M13.5,21.4h4.3v-4.3h-4.3V21.4z M14.3,17.9H17v2.7h-2.7V17.9z"/>
	<path id="Path_82" d="M18.6,21.4h4.3v-9.4h-4.3V21.4z M19.4,12.9h2.7v7.8h-2.7V12.9z"/>
	<path id="Path_83" d="M8.4,16.4h4.3v-4.3H8.4V16.4z M9.2,12.9H12v2.7H9.2V12.9z"/>
	<path id="Path_84" d="M13.5,16.4h4.3v-4.3h-4.3V16.4z M14.3,12.9H17v2.7h-2.7V12.9z"/>
	<path id="Path_85" d="M8.4,11.3h4.3V7H8.4V11.3z M9.2,7.8H12v2.7H9.2V7.8z"/>
	<path id="Path_86" d="M13.5,11.3h4.3V7h-4.3V11.3z M14.3,7.8H17v2.7h-2.7V7.8z"/>
	<path id="Path_87" d="M18.6,11.3h4.3V7h-4.3V11.3z M19.4,7.8h2.7v2.7h-2.7V7.8z"/>
	<path id="Path_88" d="M8.4,5.8h14.4V1.9H8.4V5.8z M9.2,2.7h12.9v2.3H9.2V2.7z"/>
</g>
</svg>
