<?xml version="1.0" encoding="utf-8"?>
<!-- Generator: Adobe Illustrator 22.0.1, SVG Export Plug-In . SVG Version: 6.00 Build 0)  -->
<svg version="1.1" id="noun_monthly_calendar_1814994"
	 xmlns="http://www.w3.org/2000/svg" xmlns:xlink="http://www.w3.org/1999/xlink" x="0px" y="0px" viewBox="0 0 13.1 13.1"
	 style="enable-background:new 0 0 13.1 13.1;" xml:space="preserve">
<g id="Group_139">
	<path id="Path_62" d="M9.4,0c0.2,0,0.4,0.2,0.4,0.4c0,0,0,0,0,0v1.6c0.5,0.2,0.9,0.7,0.9,1.2c0,0.7-0.7,1.3-1.4,1.3
		C8.6,4.5,8.1,4,8,3.3c0-0.6,0.4-1,0.9-1.2V0.4C8.9,0.2,9.1,0,9.4,0C9.4,0,9.4,0,9.4,0z M3.7,0C4,0,4.2,0.2,4.2,0.4c0,0,0,0,0,0v1.6
		C4.7,2.2,5,2.7,5.1,3.3C5,4,4.4,4.6,3.7,4.6C3,4.5,2.4,4,2.4,3.3c0-0.6,0.4-1,0.9-1.2V0.4C3.3,0.2,3.5,0,3.7,0C3.7,0,3.7,0,3.7,0z
		 M11.5,0.9c0.9,0,1.6,0.7,1.6,1.6v9.1c0,0.9-0.8,1.6-1.6,1.6H1.6c-0.9,0-1.6-0.7-1.6-1.6V2.4c0-0.9,0.8-1.6,1.6-1.6h0.9
		C2.8,0.8,3,1,3,1.3c0,0.2-0.2,0.4-0.4,0.5c0,0,0,0-0.1,0H1.6C1.2,1.7,0.9,2,0.9,2.4c0,0,0,0,0,0v2.4h11.3V2.4
		c0-0.4-0.3-0.7-0.7-0.7c0,0,0,0,0,0h-0.9c-0.2,0-0.4-0.2-0.5-0.4c0-0.2,0.2-0.4,0.4-0.5c0,0,0,0,0.1,0L11.5,0.9z M8.2,0.9
		c0.2,0,0.4,0.2,0.5,0.4c0,0.2-0.2,0.4-0.4,0.5c0,0,0,0-0.1,0H4.9c-0.2,0-0.4-0.2-0.5-0.4c0-0.2,0.2-0.4,0.4-0.5c0,0,0,0,0.1,0H8.2z
		 M9.4,2.8C9.1,2.9,9,3.1,9,3.3s0.2,0.4,0.4,0.4c0.2,0,0.4-0.2,0.4-0.4C9.8,3,9.6,2.8,9.4,2.8C9.4,2.8,9.4,2.8,9.4,2.8L9.4,2.8z
		 M3.7,2.8c-0.2,0-0.4,0.2-0.4,0.4s0.2,0.4,0.4,0.4c0.2,0,0.4-0.2,0.4-0.4C4.2,3,4,2.8,3.7,2.8C3.7,2.8,3.7,2.8,3.7,2.8L3.7,2.8z
		 M12.2,5.7H0.9v5.8c0,0.4,0.3,0.7,0.7,0.7c0,0,0,0,0,0h9.8c0.4,0,0.7-0.3,0.7-0.7c0,0,0,0,0,0L12.2,5.7z"/>
</g>
</svg>
