<?xml version="1.0" encoding="utf-8"?>
<!-- Generator: Adobe Illustrator 22.0.1, SVG Export Plug-In . SVG Version: 6.00 Build 0)  -->
<svg version="1.1" id="Layer_1" xmlns="http://www.w3.org/2000/svg" xmlns:xlink="http://www.w3.org/1999/xlink" x="0px" y="0px"
	 viewBox="0 0 45 45" style="enable-background:new 0 0 45 45;" xml:space="preserve">
<style type="text/css">
	.st0{fill:#FFFFFF;}
	.st1{fill:#C2C2C2;}
	.st2{fill:#36B0E6;}
</style>
<g id="Group_190" transform="translate(-166 -427)">
	<g id="Ellipse_38" transform="translate(166 427)">
		<g>
			<circle class="st0" cx="22.5" cy="22.5" r="22.5"/>
		</g>
		<g>
			<path class="st1" d="M22.5,45C10.093,45,0,34.906,0,22.5C0,10.093,10.093,0,22.5,0C34.906,0,45,10.093,45,22.5
				C45,34.906,34.906,45,22.5,45z M22.5,1C10.645,1,1,10.645,1,22.5C1,34.355,10.645,44,22.5,44C34.355,44,44,34.355,44,22.5
				C44,10.645,34.355,1,22.5,1z"/>
		</g>
	</g>
	<g id="noun_phone_call_607230" transform="translate(161.5 426.5)">
		<g id="Path_96">
			<path class="st2" d="M33.871,22.819h1.706c-0.008-5.188-4.212-9.392-9.4-9.4v1.71C30.423,15.132,33.865,18.573,33.871,22.819z"/>
		</g>
		<g id="Path_97">
			<path class="st2" d="M38.145,28.807l-6.839-2.565l-2.565,2.565c-3.386-2.258-6.291-5.165-8.547-8.552l2.565-2.565l-2.565-6.835
				h-0.478c-1.883,0-3.689,0.748-5.021,2.08l0,0c-1.406,1.406-2.195,3.312-2.195,5.3l0,0c0,1.327,0.352,2.629,1.021,3.775
				c3.254,5.576,7.894,10.216,13.471,13.469c2.94,1.715,6.666,1.233,9.073-1.174l0,0c1.332-1.332,2.08-3.138,2.08-5.021
				L38.145,28.807z"/>
		</g>
		<g id="Path_98">
			<path class="st2" d="M26.177,10v1.71c6.135,0.007,11.106,4.978,11.113,11.113H39C38.992,15.744,33.256,10.008,26.177,10z"/>
		</g>
	</g>
</g>
</svg>
