<?xml version="1.0" encoding="utf-8"?>
<!-- Generator: Adobe Illustrator 22.0.1, SVG Export Plug-In . SVG Version: 6.00 Build 0)  -->
<svg version="1.1" id="Layer_1" xmlns="http://www.w3.org/2000/svg" xmlns:xlink="http://www.w3.org/1999/xlink" x="0px" y="0px"
	 viewBox="0 0 45 45" style="enable-background:new 0 0 45 45;" xml:space="preserve">
<style type="text/css">
	.st0{fill:#020202;}
</style>
<g id="Group_190" transform="translate(-166 -427)">
	<g id="Ellipse_38" transform="translate(166 427)">
		<g>
			<path class="st0" d="M31.08,22.32h-1.71c0-4.25-3.45-7.69-7.69-7.69v-1.71C26.87,12.93,31.07,17.13,31.08,22.32z"/>
			<path class="st0" d="M33.65,28.31v0.47c0,1.89-0.75,3.69-2.08,5.03c-2.41,2.4-6.14,2.88-9.08,1.17
				c-5.57-3.25-10.22-7.89-13.47-13.47C8.35,20.36,8,19.06,8,17.74c0-1.99,0.79-3.9,2.19-5.31c1.34-1.33,3.14-2.08,5.03-2.07h0.47
				l2.57,6.83l-2.57,2.56c2.26,3.39,5.17,6.3,8.55,8.56l2.57-2.57L33.65,28.31z"/>
			<path class="st0" d="M34.5,22.32h-1.71c-0.01-6.13-4.98-11.1-11.11-11.11V9.5C28.76,9.51,34.49,15.24,34.5,22.32z"/>
			<path class="st0" d="M41.74,10.83c-0.56-0.92-1.19-1.8-1.88-2.63c-0.24-0.29-0.47-0.56-0.71-0.83c-0.48-0.53-0.99-1.04-1.52-1.52
				c-0.27-0.24-0.54-0.47-0.83-0.71c-0.83-0.69-1.71-1.32-2.63-1.88C30.77,1.19,26.77,0,22.5,0s-8.27,1.19-11.67,3.26
				C9.91,3.82,9.03,4.45,8.2,5.14C7.91,5.38,7.64,5.61,7.37,5.85C6.84,6.34,6.34,6.84,5.85,7.37C5.61,7.64,5.38,7.91,5.14,8.2
				c-0.69,0.83-1.32,1.71-1.88,2.63C1.19,14.23,0,18.23,0,22.5s1.19,8.27,3.26,11.67c0.56,0.92,1.19,1.8,1.88,2.63
				c0.24,0.29,0.47,0.56,0.71,0.83c0.49,0.53,0.99,1.03,1.52,1.52c0.27,0.24,0.54,0.47,0.83,0.71c0.83,0.69,1.71,1.32,2.63,1.88
				c3.4,2.07,7.4,3.26,11.67,3.26s8.27-1.19,11.67-3.26c0.92-0.56,1.8-1.19,2.63-1.88c0.29-0.24,0.56-0.47,0.83-0.71
				c0.53-0.48,1.04-0.99,1.52-1.52c0.24-0.27,0.47-0.54,0.71-0.83c0.69-0.83,1.32-1.71,1.88-2.63c2.07-3.4,3.26-7.4,3.26-11.67
				S43.81,14.23,41.74,10.83z M22.5,44C10.65,44,1,34.36,1,22.5C1,10.65,10.65,1,22.5,1C34.36,1,44,10.65,44,22.5
				C44,34.36,34.36,44,22.5,44z"/>
		</g>
		<g>
			<path class="st0" d="M41.74,10.83c-0.57-0.92-1.2-1.8-1.88-2.63c-0.24-0.29-0.47-0.56-0.71-0.83c-0.49-0.53-0.99-1.03-1.52-1.52
				c-0.27-0.24-0.54-0.47-0.83-0.71c-0.83-0.68-1.71-1.31-2.63-1.88C30.77,1.19,26.77,0,22.5,0s-8.27,1.19-11.67,3.26
				c-0.92,0.57-1.8,1.2-2.63,1.88C7.91,5.38,7.64,5.61,7.37,5.85C6.84,6.34,6.34,6.84,5.85,7.37C5.61,7.64,5.38,7.91,5.14,8.2
				c-0.68,0.83-1.31,1.71-1.88,2.63C1.19,14.23,0,18.23,0,22.5s1.19,8.27,3.26,11.67c0.57,0.92,1.2,1.8,1.88,2.63
				c0.24,0.29,0.47,0.56,0.71,0.83c0.49,0.53,0.99,1.03,1.52,1.52c0.27,0.24,0.54,0.47,0.83,0.71c0.83,0.68,1.71,1.31,2.63,1.88
				c3.4,2.07,7.4,3.26,11.67,3.26s8.27-1.19,11.67-3.26c0.92-0.57,1.8-1.2,2.63-1.88c0.29-0.24,0.56-0.47,0.83-0.71
				c0.53-0.49,1.03-0.99,1.52-1.52c0.24-0.27,0.47-0.54,0.71-0.83c0.68-0.83,1.31-1.71,1.88-2.63c2.07-3.4,3.26-7.4,3.26-11.67
				S43.81,14.23,41.74,10.83z M22.5,44C10.65,44,1,34.36,1,22.5C1,10.65,10.65,1,22.5,1C34.36,1,44,10.65,44,22.5
				C44,34.36,34.36,44,22.5,44z"/>
		</g>
	</g>
	<g id="noun_phone_call_607230" transform="translate(161.5 426.5)">
		<g id="Path_96">
			<path class="st0" d="M35.58,22.82h-1.71c0-4.25-3.45-7.69-7.69-7.69v-1.71C31.37,13.43,35.57,17.63,35.58,22.82z"/>
		</g>
		<g id="Path_97">
			<path class="st0" d="M38.15,28.81v0.47c0,1.89-0.75,3.69-2.08,5.03c-2.41,2.4-6.14,2.88-9.08,1.17
				c-5.57-3.25-10.22-7.89-13.47-13.47c-0.67-1.15-1.02-2.45-1.02-3.77c0-1.99,0.79-3.9,2.19-5.31c1.34-1.33,3.14-2.08,5.03-2.07
				h0.47l2.57,6.83l-2.57,2.56c2.26,3.39,5.17,6.3,8.55,8.56l2.57-2.57L38.15,28.81z"/>
		</g>
		<g id="Path_98">
			<path class="st0" d="M39,22.82h-1.71c-0.01-6.13-4.98-11.1-11.11-11.11V10C33.26,10.01,38.99,15.74,39,22.82z"/>
		</g>
	</g>
</g>
</svg>
