<?xml version="1.0" encoding="utf-8"?>
<!-- Generator: Adobe Illustrator 22.0.1, SVG Export Plug-In . SVG Version: 6.00 Build 0)  -->
<svg version="1.1" id="Layer_1" xmlns="http://www.w3.org/2000/svg" xmlns:xlink="http://www.w3.org/1999/xlink" x="0px" y="0px"
	 viewBox="0 0 100 100" style="enable-background:new 0 0 100 100;" xml:space="preserve">
<g>
	<path d="M92.23,9.48H7.76C3.47,9.48,0,12.92,0,17.17v65.65c0,4.25,3.47,7.69,7.76,7.69h84.47c4.29,0,7.77-3.44,7.77-7.69V17.17
		C100,12.92,96.52,9.48,92.23,9.48z M95,82.82c0,1.48-1.25,2.69-2.77,2.69H7.76C6.24,85.51,5,84.3,5,82.82V45.49h90V82.82z
		 M95,27.48H5V17.17c0-1.48,1.24-2.69,2.76-2.69h84.47c1.52,0,2.77,1.21,2.77,2.69V27.48z"/>
	<rect x="13.63" y="70.01" width="18.18" height="4"/>
	<rect x="40.91" y="70.01" width="18.18" height="4"/>
</g>
</svg>
