<?xml version="1.0" encoding="utf-8"?>
<!-- Generator: Adobe Illustrator 22.0.1, SVG Export Plug-In . SVG Version: 6.00 Build 0)  -->
<svg version="1.1" id="Layer_1" xmlns="http://www.w3.org/2000/svg" xmlns:xlink="http://www.w3.org/1999/xlink" x="0px" y="0px"
	 viewBox="0 0 7.9 9.6" style="enable-background:new 0 0 7.9 9.6;" xml:space="preserve">
<g id="padlock" transform="translate(0 0)">
	<path id="Path_65" d="M7.7,4.6C7.6,4.5,7.4,4.4,7.2,4.4H7V3.1c0-0.8-0.3-1.6-0.9-2.2C4.9-0.3,3-0.3,1.8,0.9c0,0,0,0,0,0
		C1.2,1.5,0.9,2.3,0.9,3.1v1.3H0.7C0.3,4.4,0,4.7,0,5c0,0,0,0,0,0V9c0,0.4,0.3,0.7,0.7,0.7c0,0,0,0,0,0h6.6c0.4,0,0.7-0.3,0.7-0.7
		c0,0,0,0,0,0V5C7.9,4.9,7.8,4.7,7.7,4.6z M5.7,4.4H2.2V3.1c0-0.5,0.2-0.9,0.5-1.2c0.7-0.7,1.8-0.7,2.5,0c0,0,0,0,0,0
		c0.3,0.3,0.5,0.8,0.5,1.2V4.4z"/>
</g>
</svg>
