<svg height="480pt" viewBox="0 0 480 480" width="480pt" xmlns="http://www.w3.org/2000/svg"><path d="m472 120v288c0 17.671875-14.328125 32-32 32h-176v-128c.027344-41.683594-26.875-78.609375-66.558594-91.359375-9.507812-3.09375-19.445312-4.660156-29.441406-4.640625v-32c17.671875 0 32-14.328125 32-32v-24h8c8.808594-.066406 15.933594-7.191406 16-16v-72h168v64c.027344 8.824219 7.175781 15.972656 16 16zm0 0" fill="#e6e7e8"/><path d="m208 96c8.824219.027344 15.972656 7.175781 16 16-.066406 8.808594-7.191406 15.933594-16 16h-8v-32zm0 0" fill="#f1cfa2"/><path d="m72 96v32h-8c-8.808594-.066406-15.933594-7.191406-16-16 .015625-4.410156 1.871094-8.617188 5.121094-11.601562v-.078126c2.921875-2.808593 6.828125-4.359374 10.878906-4.320312zm0 0" fill="#f1cfa2"/><path d="m304 176h32v48h-32zm0 0" fill="#8b5e3c"/><path d="m368 144v80h-32v-48h-32v48h-32v-80zm0 0" fill="#ffc477"/><path d="m320 88 72 56h-144zm0 0" fill="#ff6243"/><path d="m472 120h-64c-8.824219-.027344-15.972656-7.175781-16-16v-64zm0 0" fill="#bcbec0"/><path d="m168 216 16 24-16 40-32-24zm0 0" fill="#d1d3d4"/><path d="m104 216 32 40-32 24-16-40zm0 0" fill="#d1d3d4"/><path d="m168 280-32 72-32-72 32-24zm0 0" fill="#e6e7e8"/><path d="m197.441406 220.640625 18.558594 43.359375-24 16 16 16-2.800781 2.160156-69.199219 53.839844 32-72 16-40-16-24c9.996094-.019531 19.933594 1.546875 29.441406 4.640625zm0 0" fill="#1a6fb0"/><path d="m88 240 16 40 32 72-69.199219-53.839844-2.800781-2.160156 16-16-24-16 18.558594-43.359375c9.507812-3.101563 19.445312-4.667969 29.441406-4.640625zm0 0" fill="#1a6fb0"/><path d="m197.441406 220.640625 18.558594 43.359375-24 16 16 16-2.800781 2.160156-69.199219 53.839844v120h128v-160c.027344-41.683594-26.875-78.609375-66.558594-91.359375zm0 0" fill="#3d9ae2"/><path d="m66.800781 298.160156-2.800781-2.160156 16-16-24-16 18.558594-43.359375c-39.683594 12.75-66.585938 49.675781-66.558594 91.359375v160h128v-120zm0 0" fill="#1e81ce"/><path d="m168 184v32l-32 40-32-40v-32zm0 0" fill="#ffdaaa"/><path d="m200 112v40c0 17.671875-14.328125 32-32 32h-64c-17.671875 0-32-14.328125-32-32v-94.078125c11.335938 9.121094 25.449219 14.089844 40 14.078125 0 0 40 0 56-16 0 0 8 24 32 24zm0 0" fill="#ffdaaa"/><path d="m72 72v24h-8c-4.050781-.039062-7.957031 1.511719-10.878906 4.320312l-8.160156-32.398437c-1.210938-4.785156-.144532-9.863281 2.890624-13.753906 3.03125-3.894531 7.691407-6.171875 12.628907-6.167969h1.597656c2.894531 3.695312 6.226563 7.027344 9.921875 9.921875zm0 0" fill="#ffa733"/><path d="m224 40v72c-.027344-8.824219-7.175781-15.972656-16-16h-8v-16c-24 0-32-24-32-24-16 16-56 16-56 16-14.550781.011719-28.664062-4.957031-40-14.078125-3.695312-2.894531-7.027344-6.226563-9.921875-9.921875-9.121094-11.335938-14.089844-25.449219-14.078125-40h144c17.671875 0 32 14.328125 32 32zm0 0" fill="#ffb655"/><path d="m104 184h64v16h-64zm0 0" fill="#f1cfa2"/><path d="m477.65625 114.34375-80-80c-1.5-1.5-3.535156-2.34375-5.65625-2.34375h-144v16h136v56c0 13.253906 10.746094 24 24 24h56v280c0 13.253906-10.746094 24-24 24h-168v-120c-.082031-54.285156-41.878906-99.386719-96-103.59375v-17.207031c18.613281-3.828125 31.976562-20.199219 32-39.199219v-16c13.253906 0 24-10.746094 24-24v-72c-.027344-22.082031-17.917969-39.9726562-40-40h-144c-4.417969 0-8 3.582031-8 8-.003906 12.242188 3.132812 24.277344 9.113281 34.960938-9.707031 5.125-14.625 16.242187-11.898437 26.871093l7.128906 28.464844c-5.132812 7.320313-5.761719 16.894531-1.628906 24.824219 4.136718 7.929687 12.34375 12.894531 21.285156 12.878906v16c.023438 19 13.386719 35.371094 32 39.199219v17.214843c-54.117188 4.207032-95.9140625 49.304688-96 103.585938v160c0 4.417969 3.582031 8 8 8h256c4.417969 0 8-3.582031 8-8v-24h168c22.082031-.027344 39.972656-17.917969 40-40v-288c0-2.121094-.84375-4.15625-2.34375-5.65625zm-271.632812 146.6875-18.464844 12.3125c-1.992188 1.332031-3.285156 3.484375-3.519532 5.867188-.234374 2.386718.609376 4.75 2.304688 6.445312l9.601562 9.601562-39.671874 30.855469 35.199218-83.128906c.972656-2.453125.671875-5.226563-.800781-7.417969l-6.671875-10.046875c2.59375.480469 5.128906 1.089844 7.632812 1.785157zm-121.597657 12.3125-18.464843-12.3125 14.398437-33.726562c2.503906-.695313 5.039063-1.304688 7.632813-1.785157l-6.695313 10.039063c-1.472656 2.191406-1.773437 4.964844-.800781 7.417968l35.199218 83.128907-39.671874-30.859375 9.601562-9.597656c1.695312-1.695313 2.539062-4.058594 2.304688-6.445313-.234376-2.382813-1.527344-4.535156-3.523438-5.867187zm75.574219-81.34375v21.199219l-24 30-24-30v-21.199219zm-55.414062 37.535156 20 25.015625-17.050782 12.800781-10.558594-26.398437zm31.414062 36.464844 22.105469 16.574219-22.105469 49.730469-22.105469-49.730469zm28.449219 1.335938-17.050781-12.800782 20-25.015625 7.59375 11.402344zm43.550781-147.335938v-16c4.417969 0 8 3.582031 8 8s-3.582031 8-8 8zm-16-104c13.253906 0 24 10.746094 24 24v49.472656c-2.5625-.949218-5.269531-1.445312-8-1.472656v-8c0-4.417969-3.582031-8-8-8-11.144531-.648438-20.789062-7.96875-24.40625-18.527344-.878906-2.632812-3.054688-4.621094-5.753906-5.257812-2.699219-.636719-5.535156.167968-7.496094 2.128906-11.144531 11.160156-40.128906 13.65625-50.34375 13.65625-27.824219-.035156-51.417969-20.464844-55.433594-48zm-128 45.511719v26.488281c-1.886719.015625-3.769531.253906-5.601562.710938l-5.695313-22.765626c-.609375-2.390624-.074219-4.925781 1.449219-6.867187 1.179687-1.417969 2.824218-2.375 4.640625-2.695313 1.667969 1.792969 3.40625 3.503907 5.207031 5.128907zm-8 50.488281c0-4.417969 3.582031-8 8-8v16c-4.417969 0-8-3.582031-8-8zm24 40v-79.601562c9.929688 4.988281 20.886719 7.589843 32 7.601562 3.824219 0 33.601562-.382812 53.175781-11.894531 5.882813 9.839843 15.605469 16.78125 26.824219 19.152343v64.742188c0 13.253906-10.746094 24-24 24h-64c-13.253906 0-24-10.746094-24-24zm-64 160c.039062-31.011719 16.40625-59.714844 43.078125-75.535156l-10.398437 24.382812c-1.519532 3.542969-.296876 7.667969 2.914062 9.808594l15.878906 10.582031-9.128906 9.105469c-1.632812 1.625-2.488281 3.871094-2.34375 6.167969.140625 2.296875 1.265625 4.421875 3.089844 5.832031l68.910156 53.566406v108.089844h-64v-152h-16v152h-32zm240 152h-32v-152h-16v152h-64v-108.089844l68.910156-53.597656c1.824219-1.410156 2.949219-3.535156 3.089844-5.832031.144531-2.296875-.710938-4.546875-2.34375-6.167969l-9.097656-9.074219 15.882812-10.582031c3.207032-2.140625 4.429688-6.265625 2.910156-9.808594l-10.398437-24.382812c26.660156 15.828125 43.015625 44.527344 43.046875 75.535156zm144-360v-44.6875l52.6875 52.6875h-44.6875c-4.417969 0-8-3.582031-8-8zm0 0"/><path d="m248 152h16v72c0 4.417969 3.582031 8 8 8h96c4.417969 0 8-3.582031 8-8v-72h16c3.421875.003906 6.464844-2.167969 7.574219-5.40625 1.109375-3.234375.039062-6.816406-2.664063-8.914062l-72-56c-2.886718-2.246094-6.933594-2.246094-9.820312 0l-72 56c-2.703125 2.097656-3.773438 5.679687-2.664063 8.914062 1.109375 3.238281 4.152344 5.410156 7.574219 5.40625zm64 64v-32h16v32zm48 0h-16v-40c0-4.417969-3.582031-8-8-8h-32c-4.417969 0-8 3.582031-8 8v40h-16v-64h80zm-40-117.863281 48.679688 37.863281h-97.359376zm0 0"/><path d="m296 264h32v16h-32zm0 0"/><path d="m344 264h64v16h-64zm0 0"/><path d="m296 304h112v16h-112zm0 0"/><path d="m368.519531 352.800781c-5.347656 2.789063-11.71875 2.789063-17.0625 0-4.757812-2.519531-10.074219-3.785156-15.457031-3.679687v16c2.976562-.097656 5.925781.625 8.519531 2.085937 9.726563 4.894531 21.195313 4.894531 30.921875 0 5.351563-2.792969 11.734375-2.792969 17.085938 0 4.761718 2.515625 10.085937 3.78125 15.472656 3.671875v-16c-2.988281.101563-5.941406-.625-8.542969-2.09375-9.734375-4.886718-21.203125-4.886718-30.9375 0zm0 0"/><path d="m136 152c13.253906 0 24-10.746094 24-24h-16c0 4.417969-3.582031 8-8 8s-8-3.582031-8-8h-16c0 13.253906 10.746094 24 24 24zm0 0"/><path d="m120 96c0 4.417969-3.582031 8-8 8s-8-3.582031-8-8 3.582031-8 8-8 8 3.582031 8 8zm0 0"/><path d="m168 96c0 4.417969-3.582031 8-8 8s-8-3.582031-8-8 3.582031-8 8-8 8 3.582031 8 8zm0 0"/></svg>