<?xml version="1.0" encoding="utf-8"?>
<!-- Generator: Adobe Illustrator 22.0.1, SVG Export Plug-In . SVG Version: 6.00 Build 0)  -->
<svg version="1.1" id="Layer_1" xmlns="http://www.w3.org/2000/svg" xmlns:xlink="http://www.w3.org/1999/xlink" x="0px" y="0px"
	 viewBox="0 0 100 100" style="enable-background:new 0 0 100 100;" xml:space="preserve">
<path d="M97.717,50.586c-1.332-0.097-2.441,0.918-2.521,2.231C93.74,76.604,73.908,95.238,50.047,95.238
	C25.103,95.238,4.809,74.944,4.809,50S25.103,4.762,50.047,4.762c13.992,0,27.203,6.531,35.752,17.548L49.385,58.724L35.829,44.321
	c-0.901-0.958-2.407-1.003-3.366-0.102c-0.957,0.901-1.003,2.408-0.101,3.365l16.92,17.978L90.54,24.302
	c0.031-0.031,0.053-0.068,0.082-0.1c0.806-0.805,0.943-2.093,0.264-3.054C81.513,7.906,66.246,0,50.047,0c-27.57,0-50,22.43-50,50
	c0,27.57,22.43,50,50,50c26.373,0,48.291-20.598,49.9-46.893C100.029,51.795,99.03,50.666,97.717,50.586z"/>
</svg>
