<?xml version="1.0" encoding="utf-8"?>
<!-- Generator: Adobe Illustrator 22.0.1, SVG Export Plug-In . SVG Version: 6.00 Build 0)  -->
<svg version="1.1" id="Tick_outline" xmlns="http://www.w3.org/2000/svg" xmlns:xlink="http://www.w3.org/1999/xlink" x="0px"
	 y="0px" viewBox="0 0 100 100" style="enable-background:new 0 0 100 100;" xml:space="preserve">
<path id="Path_99" d="M50,7c23.7,0,43,19.3,43,43S73.7,93,50,93S7,73.7,7,50C7,26.3,26.3,7,50,7 M50,0C22.4,0,0,22.4,0,50
	s22.4,50,50,50s50-22.4,50-50C100,22.4,77.6,0,50,0z"/>
<path id="Path_100" d="M75.3,35.8L42.1,69c-0.7,0.7-1.6,1-2.6,1c-1,0-1.9-0.3-2.6-1L24.7,56.8c-1.3-1.3-1.3-3.5,0-4.8
	c0.6-0.7,1.5-1,2.4-1c0.9,0,1.8,0.3,2.4,1l10,10l31-31c0.6-0.7,1.5-1,2.4-1c0.9,0,1.8,0.3,2.4,1C76.6,32.3,76.6,34.5,75.3,35.8z"/>
</svg>
